<?xml version="1.0" encoding="iso-8859-1"?>
<!-- Uploaded to: SVG Repo, www.svgrepo.com, Generator: SVG Repo Mixer Tools -->
<svg fill="#000000" height="800px" width="800px" version="1.1" id="Capa_1" xmlns="http://www.w3.org/2000/svg" xmlns:xlink="http://www.w3.org/1999/xlink" 
	 viewBox="0 0 60 60" xml:space="preserve">
<g>
	<g>
		<circle cx="48" cy="54" r="1"/>
		<circle cx="12" cy="54" r="1"/>
		<path d="M56,48V19.375C56,9.794,48.206,2,38.626,2H38V0H22v2h-0.626C11.794,2,4,9.794,4,19.375V48H2v6h4c0,3.309,2.691,6,6,6
			s6-2.691,6-6h24c0,3.309,2.691,6,6,6s6-2.691,6-6h4v-6H56z M36,2v2H24V2H36z M6,19.375C6,10.897,12.896,4,21.374,4H22v2h16V4
			h0.626C47.104,4,54,10.897,54,19.375V48h-3V35.656C51,34.743,50.257,34,49.344,34H46V21.656C46,20.743,45.257,20,44.344,20H16.656
			C15.743,20,15,20.743,15,21.656V34h-3.344C10.743,34,10,34.743,10,35.656V48H6V19.375z M12,48v-5h9v2h19v-2h9v5h-1H12z M44,27h-4
			v-2H21v2h-4v-5h27V27z M38,29H23v-2h15V29z M17,29h4v2h19v-2h4v5H17V29z M46,36h3v5h-9v-2H21v2h-9v-5h3H46z M38,43H23v-2h15V43z
			 M6.343,52H4v-2h3.533c-0.012,0.013-0.02,0.029-0.031,0.042C7.274,50.3,7.07,50.578,6.889,50.873
			c-0.025,0.04-0.049,0.079-0.073,0.12c-0.173,0.297-0.32,0.61-0.44,0.937C6.367,51.954,6.352,51.975,6.343,52z M12,58
			c-2.206,0-4-1.794-4-4c0-0.538,0.11-1.05,0.304-1.52c0.027-0.067,0.065-0.127,0.096-0.192c0.075-0.156,0.154-0.311,0.247-0.455
			c0.049-0.076,0.106-0.145,0.16-0.217c0.09-0.121,0.184-0.238,0.287-0.348c0.069-0.074,0.143-0.142,0.218-0.21
			c0.102-0.093,0.208-0.181,0.32-0.264c0.086-0.064,0.174-0.125,0.265-0.182c0.115-0.072,0.236-0.135,0.358-0.195
			c0.096-0.047,0.191-0.095,0.291-0.135c0.141-0.055,0.287-0.096,0.435-0.135c0.09-0.024,0.177-0.054,0.268-0.072
			C11.493,50.029,11.743,50,12,50s0.507,0.029,0.751,0.076c0.092,0.018,0.178,0.048,0.268,0.072c0.148,0.039,0.295,0.08,0.435,0.135
			c0.1,0.039,0.195,0.088,0.291,0.135c0.123,0.06,0.243,0.123,0.358,0.195c0.091,0.057,0.179,0.118,0.265,0.182
			c0.111,0.082,0.218,0.171,0.32,0.264c0.075,0.068,0.148,0.137,0.218,0.21c0.103,0.11,0.197,0.227,0.288,0.348
			c0.054,0.072,0.11,0.141,0.159,0.216c0.094,0.145,0.173,0.299,0.248,0.456c0.031,0.064,0.068,0.125,0.095,0.191
			C15.89,52.95,16,53.462,16,54C16,56.206,14.206,58,12,58z M42.343,52H17.657c-0.009-0.025-0.024-0.046-0.033-0.07
			c-0.121-0.327-0.267-0.64-0.44-0.937c-0.024-0.041-0.048-0.08-0.073-0.12c-0.181-0.295-0.385-0.572-0.613-0.831
			c-0.012-0.013-0.02-0.029-0.031-0.042h27.066c-0.012,0.013-0.02,0.029-0.031,0.042c-0.228,0.258-0.432,0.536-0.613,0.831
			c-0.025,0.04-0.049,0.079-0.073,0.12c-0.173,0.297-0.32,0.61-0.44,0.937C42.367,51.954,42.352,51.975,42.343,52z M48,58
			c-2.206,0-4-1.794-4-4c0-0.538,0.11-1.05,0.304-1.52c0.027-0.067,0.065-0.127,0.096-0.192c0.075-0.156,0.154-0.311,0.247-0.455
			c0.049-0.076,0.106-0.145,0.16-0.217c0.09-0.121,0.184-0.238,0.287-0.348c0.069-0.074,0.143-0.142,0.218-0.21
			c0.102-0.093,0.208-0.181,0.32-0.264c0.086-0.064,0.174-0.125,0.265-0.182c0.115-0.072,0.236-0.135,0.358-0.195
			c0.096-0.047,0.191-0.095,0.291-0.135c0.141-0.055,0.287-0.096,0.435-0.135c0.09-0.024,0.177-0.054,0.268-0.072
			C47.493,50.029,47.743,50,48,50s0.507,0.029,0.751,0.076c0.092,0.018,0.178,0.048,0.268,0.072c0.148,0.039,0.295,0.08,0.435,0.135
			c0.1,0.039,0.195,0.088,0.291,0.135c0.123,0.06,0.243,0.123,0.358,0.195c0.091,0.057,0.179,0.118,0.265,0.182
			c0.111,0.082,0.218,0.171,0.32,0.264c0.075,0.068,0.148,0.137,0.218,0.21c0.103,0.11,0.197,0.227,0.288,0.348
			c0.054,0.072,0.11,0.141,0.159,0.216c0.094,0.145,0.173,0.299,0.248,0.456c0.031,0.064,0.068,0.125,0.095,0.191
			C51.89,52.95,52,53.462,52,54C52,56.206,50.206,58,48,58z M56,52h-2.343c-0.009-0.025-0.024-0.046-0.033-0.07
			c-0.121-0.327-0.267-0.64-0.44-0.937c-0.024-0.041-0.048-0.08-0.073-0.12c-0.181-0.295-0.385-0.572-0.613-0.831
			c-0.012-0.013-0.02-0.029-0.031-0.042H56V52z"/>
	</g>
</g>
</svg>